<svg width="162" height="52" viewBox="0 0 162 52" fill="none" xmlns="http://www.w3.org/2000/svg">
<rect width="162" height="52" rx="5" fill="#FFD600"/>
<path d="M34.2926 21.2V31H32.9206V22.418H27.2366V31H25.8506V21.2H34.2926ZM43.8587 31.112C42.8693 31.112 41.978 30.8973 41.1847 30.468C40.3913 30.0293 39.766 29.4273 39.3087 28.662C38.8607 27.8967 38.6367 27.0427 38.6367 26.1C38.6367 25.1573 38.8607 24.3033 39.3087 23.538C39.766 22.7727 40.3913 22.1753 41.1847 21.746C41.978 21.3073 42.8693 21.088 43.8587 21.088C44.8387 21.088 45.7253 21.3073 46.5187 21.746C47.312 22.1753 47.9327 22.7727 48.3807 23.538C48.8287 24.294 49.0527 25.148 49.0527 26.1C49.0527 27.052 48.8287 27.9107 48.3807 28.676C47.9327 29.432 47.312 30.0293 46.5187 30.468C45.7253 30.8973 44.8387 31.112 43.8587 31.112ZM43.8587 29.866C44.5773 29.866 45.2213 29.7027 45.7907 29.376C46.3693 29.0493 46.822 28.6013 47.1487 28.032C47.4847 27.4533 47.6527 26.8093 47.6527 26.1C47.6527 25.3907 47.4847 24.7513 47.1487 24.182C46.822 23.6033 46.3693 23.1507 45.7907 22.824C45.2213 22.4973 44.5773 22.334 43.8587 22.334C43.14 22.334 42.4867 22.4973 41.8987 22.824C41.32 23.1507 40.8627 23.6033 40.5267 24.182C40.2 24.7513 40.0367 25.3907 40.0367 26.1C40.0367 26.8093 40.2 27.4533 40.5267 28.032C40.8627 28.6013 41.32 29.0493 41.8987 29.376C42.4867 29.7027 43.14 29.866 43.8587 29.866ZM62.4804 29.782V33.142H61.1784V31H53.1144L53.1004 33.142H51.7984L51.8124 29.782H52.2884C52.9044 29.7447 53.3384 29.2593 53.5904 28.326C53.8424 27.3833 53.9964 26.058 54.0524 24.35L54.1504 21.2H61.0384V29.782H62.4804ZM55.2844 24.476C55.2377 25.8573 55.1257 27.0007 54.9484 27.906C54.7804 28.8113 54.5051 29.4367 54.1224 29.782H59.6524V22.418H55.3544L55.2844 24.476ZM70.3164 21.2C71.5857 21.2 72.5844 21.5033 73.3124 22.11C74.0404 22.7167 74.4044 23.552 74.4044 24.616C74.4044 25.68 74.0404 26.5153 73.3124 27.122C72.5844 27.7287 71.5857 28.032 70.3164 28.032H67.8944V31H66.4944V21.2H70.3164ZM70.2744 26.814C71.161 26.814 71.8377 26.6273 72.3044 26.254C72.771 25.8713 73.0044 25.3253 73.0044 24.616C73.0044 23.9067 72.771 23.3653 72.3044 22.992C71.8377 22.6093 71.161 22.418 70.2744 22.418H67.8944V26.814H70.2744ZM82.9985 31.112C82.0092 31.112 81.1178 30.8973 80.3245 30.468C79.5312 30.0293 78.9058 29.4273 78.4485 28.662C78.0005 27.8967 77.7765 27.0427 77.7765 26.1C77.7765 25.1573 78.0005 24.3033 78.4485 23.538C78.9058 22.7727 79.5312 22.1753 80.3245 21.746C81.1178 21.3073 82.0092 21.088 82.9985 21.088C83.9785 21.088 84.8652 21.3073 85.6585 21.746C86.4518 22.1753 87.0725 22.7727 87.5205 23.538C87.9685 24.294 88.1925 25.148 88.1925 26.1C88.1925 27.052 87.9685 27.9107 87.5205 28.676C87.0725 29.432 86.4518 30.0293 85.6585 30.468C84.8652 30.8973 83.9785 31.112 82.9985 31.112ZM82.9985 29.866C83.7172 29.866 84.3612 29.7027 84.9305 29.376C85.5092 29.0493 85.9618 28.6013 86.2885 28.032C86.6245 27.4533 86.7925 26.8093 86.7925 26.1C86.7925 25.3907 86.6245 24.7513 86.2885 24.182C85.9618 23.6033 85.5092 23.1507 84.9305 22.824C84.3612 22.4973 83.7172 22.334 82.9985 22.334C82.2798 22.334 81.6265 22.4973 81.0385 22.824C80.4598 23.1507 80.0025 23.6033 79.6665 24.182C79.3398 24.7513 79.1765 25.3907 79.1765 26.1C79.1765 26.8093 79.3398 27.4533 79.6665 28.032C80.0025 28.6013 80.4598 29.0493 81.0385 29.376C81.6265 29.7027 82.2798 29.866 82.9985 29.866ZM92.5557 21.2H99.9477V22.39H93.9417V25.19H96.9937C98.1604 25.19 99.047 25.4327 99.6537 25.918C100.26 26.4033 100.564 27.1033 100.564 28.018C100.564 28.9793 100.232 29.7167 99.5697 30.23C98.9164 30.7433 97.9784 31 96.7557 31H92.5557V21.2ZM96.6997 29.894C97.5024 29.894 98.1137 29.74 98.5337 29.432C98.9537 29.124 99.1637 28.6713 99.1637 28.074C99.1637 26.8887 98.3424 26.296 96.6997 26.296H93.9417V29.894H96.6997ZM113.324 21.2V31H111.924V26.632H106.296V31H104.896V21.2H106.296V25.414H111.924V21.2H113.324ZM125.592 29.782V31H118.48V21.2H125.396V22.418H119.88V25.428H124.794V26.618H119.88V29.782H125.592ZM137.003 29.782V31H129.891V21.2H136.807V22.418H131.291V25.428H136.205V26.618H131.291V29.782H137.003Z" fill="black"/>
</svg>
