<svg width="26" height="29" viewBox="0 0 26 29" fill="none" xmlns="http://www.w3.org/2000/svg">
<path d="M13 12.9C9.4 12.9 6.5 10 6.5 6.4C6.5 2.8 9.4 0 13 0C16.6 0 19.5 2.9 19.5 6.5C19.5 10.1 16.6 12.9 13 12.9ZM13 2C10.5 2 8.5 4 8.5 6.5C8.5 9 10.5 11 13 11C15.5 11 17.5 9 17.5 6.5C17.5 4 15.5 2 13 2Z" fill="#2B7BC6"/>
<path d="M23.2002 29H2.80021C2.00021 29 1.30021 28.7 0.800215 28.1C0.300215 27.5 0.00021486 26.7 0.100215 25.9L0.600215 20.7C0.800215 18 2.90021 16.8 3.80021 16.3L4.00021 16.1C4.70021 15.7 6.40022 15.1 8.10021 14.8C8.90022 14.7 9.60021 14.8 10.2002 15.2C11.9002 16.4 14.1002 16.4 15.7002 15.2C16.3002 14.8 17.0002 14.6 17.8002 14.8C19.6002 15.1 21.2002 15.7 21.9002 16.1L22.2002 16.3C23.2002 16.9 25.2002 18 25.4002 20.7L25.9002 25.9C26.0002 26.7 25.7002 27.5 25.2002 28.1C24.7002 28.7 24.0002 29 23.2002 29ZM8.70021 16.7C8.60021 16.7 8.60021 16.7 8.50021 16.7C6.60021 17.1 5.30021 17.6 5.10021 17.7C5.00022 17.9 4.90021 17.9 4.70021 18C3.80021 18.5 2.60021 19.2 2.40021 20.9L2.00021 26.1C2.00021 26.3 2.10021 26.6 2.20021 26.8C2.40021 26.9 2.60021 27 2.80021 27H23.2002C23.4002 27 23.6002 26.9 23.8002 26.7C24.0002 26.5 24.0002 26.3 24.0002 26L23.5002 20.8C23.4002 19.2 22.1002 18.5 21.2002 17.9C21.1002 17.8 21.0002 17.8 20.9002 17.7C20.6002 17.5 19.4002 17 17.5002 16.7C17.3002 16.7 17.1002 16.7 17.0002 16.8C14.7002 18.5 11.4002 18.5 9.10021 16.8C9.00021 16.8 8.80021 16.7 8.70021 16.7Z" fill="#2B7BC6"/>
</svg>
