<svg width="33" height="28" viewBox="0 0 33 28" fill="none" xmlns="http://www.w3.org/2000/svg">
<path d="M30.8129 0.22658L1.23452 11.4555C-0.373227 11.9312 -0.332003 13.5235 0.8635 13.9164L8.26325 16.2325L11.1077 24.9592C11.4581 25.9105 11.7261 26.2827 12.3238 26.2827C12.9422 26.2827 13.1689 26.0552 13.8285 25.4969C14.5706 24.7938 15.7248 23.6771 17.5387 21.8987L25.2476 27.6062C26.6699 28.392 27.6799 27.9784 28.0509 26.2827L32.8741 2.29453C33.3894 0.22658 32.1733 -0.393804 30.8129 0.22658ZM9.43814 15.6948L26.2782 5.08626C27.1027 4.52791 27.3707 5.14829 26.9997 5.58256L13.0246 18.197L12.3032 24.5043L9.43814 15.6948Z" fill="#2B7BC6"/>
</svg>
